<svg width="91" height="70" viewBox="0 0 91 70" fill="none" xmlns="http://www.w3.org/2000/svg">
<circle cx="45.5" cy="34.5" r="17" fill="#0059E0"/>
<circle cx="45.5" cy="34.5" r="17" stroke="#0059E0" stroke-width="29"/>
<circle cx="45.5" cy="34.5" r="17" stroke="#0059E0" stroke-width="29"/>
<circle cx="45.5" cy="34.5" r="32" stroke="#1F1F20" stroke-width="5"/>
<path d="M36.82 23.76L28.72 26.78L36.82 29.78V32.72L23.54 27.1V26.48L36.82 20.84V23.76ZM38.6306 35.1L49.0306 18.2H51.8106L41.4106 35.1H38.6306ZM67.4113 26.44V27.08L54.1313 32.74V29.8L62.2313 26.78L54.1313 23.78V20.86L67.4113 26.44Z" fill="white"/>
<path fill-rule="evenodd" clip-rule="evenodd" d="M61.006 68.12V65.9C61.006 65.6067 61.0575 65.42 61.1605 65.34C61.2506 65.2467 61.4374 65.2 61.7207 65.2H64.9077C65.4356 65.2 65.7511 65.1533 65.8541 65.06C65.9572 64.9667 66.0537 64.6933 66.1439 64.24L70.4126 43.66C70.4898 43.2467 70.477 43 70.3739 42.92C70.2838 42.84 70.007 42.8 69.5434 42.8H67.027L65.6462 49.22C65.5689 49.5667 65.4917 49.82 65.4144 49.98C65.3372 50.1267 65.0732 50.2 64.6225 50.2H62.9807C62.5557 50.2 62.324 50.1267 62.2853 49.98C62.2596 49.82 62.2725 49.58 62.324 49.26C62.5944 47.6733 62.6008 46.4067 62.3433 45.46C62.0986 44.5133 61.5578 43.8333 60.7208 43.42C59.8838 43.0067 58.7249 42.8 57.244 42.8H51.7005C51.224 42.8 50.9021 42.8467 50.7347 42.94C50.5673 43.0333 50.4386 43.2933 50.3484 43.72L48.4941 52.18C48.4555 52.34 48.4555 52.48 48.4941 52.6C48.5328 52.7067 48.6551 52.76 48.8611 52.76H50.0007C51.3528 52.76 52.4538 52.4333 53.3037 51.78C54.1664 51.1267 54.8038 50.24 55.2159 49.12C55.2932 48.92 55.3511 48.7667 55.3897 48.66C55.4412 48.54 55.6086 48.48 55.8919 48.48H57.4951C57.8299 48.48 58.0295 48.52 58.0939 48.6C58.1583 48.68 58.1583 48.8533 58.0939 49.12L55.5636 60.14C55.5121 60.38 55.4284 60.5333 55.3125 60.6C55.2095 60.6533 55.0099 60.68 54.7137 60.68H53.4196C53.0204 60.68 52.8015 60.62 52.7628 60.5C52.7371 60.3667 52.7371 60.14 52.7628 59.82C52.9045 58.46 52.7242 57.4467 52.222 56.78C51.7327 56.1133 50.8377 55.78 49.5372 55.78H48.1658C48.0241 55.78 47.9082 55.8 47.8181 55.84C47.728 55.88 47.67 55.96 47.6443 56.08L45.79 64.52C45.7385 64.8133 45.7449 65 45.8093 65.08C45.8737 65.16 46.0797 65.2 46.4274 65.2H49.9621C50.2583 65.2 50.4321 65.2533 50.4836 65.36C50.5351 65.4667 50.5609 65.6733 50.5609 65.98V68.28C50.5609 68.6133 50.5029 68.82 50.387 68.9C50.2712 68.9667 50.0587 69 49.7496 69H35.0313H21.4936C21.1588 69 20.9399 68.9533 20.8369 68.86C20.7468 68.7533 20.7017 68.52 20.7017 68.16V65.96C20.7017 65.6133 20.7596 65.4 20.8755 65.32C21.0043 65.24 21.2232 65.2 21.5323 65.2H24.1012C24.5777 65.2 24.8545 65.1467 24.9318 65.04C25.0219 64.9333 25.1056 64.68 25.1829 64.28L26.8633 56.2C26.9406 55.8 26.9341 55.5467 26.844 55.44C26.7539 55.3333 26.4641 55.28 25.9748 55.28H15.2548C14.8298 55.28 14.5852 55.34 14.5208 55.46C14.4564 55.5667 14.392 55.8 14.3276 56.16L12.6279 64.3C12.5635 64.6333 12.5506 64.8667 12.5892 65C12.6407 65.1333 12.879 65.2 13.3039 65.2H15.6218C15.9952 65.2 16.227 65.2533 16.3171 65.36C16.4072 65.4667 16.4523 65.7133 16.4523 66.1V68.12C16.4523 68.52 16.3944 68.7667 16.2785 68.86C16.1626 68.9533 15.9179 69 15.5445 69H1.92714C1.52795 69 1.27685 68.9533 1.17384 68.86C1.05795 68.7667 1 68.5133 1 68.1V66.12C1 65.6933 1.06438 65.4333 1.19315 65.34C1.32192 65.2467 1.5859 65.2 1.98509 65.2H4.59266C5.17212 65.2 5.53912 65.14 5.69364 65.02C5.86104 64.9 5.99625 64.5933 6.09926 64.1L10.3487 43.58C10.413 43.2467 10.4066 43.0333 10.3293 42.94C10.2521 42.8467 10.0203 42.8 9.63398 42.8H7.00709C6.64653 42.8 6.40831 42.76 6.29242 42.68C6.17653 42.6 6.11858 42.3733 6.11858 42V40C6.11858 39.56 6.17009 39.2867 6.2731 39.18C6.37612 39.06 6.64009 39 7.06503 39H20.6824C21.0043 39 21.1975 39.0533 21.2618 39.16C21.3391 39.2667 21.3777 39.4867 21.3777 39.82V41.96C21.3777 42.3467 21.3198 42.5867 21.2039 42.68C21.1009 42.76 20.8627 42.8 20.4892 42.8H18.0169C17.5662 42.8 17.2829 42.86 17.167 42.98C17.0511 43.0867 16.9545 43.3267 16.8773 43.7L15.4093 50.78C15.3449 51.14 15.3385 51.3867 15.39 51.52C15.4544 51.64 15.7119 51.7 16.1626 51.7H27.0565C27.4428 51.7 27.6681 51.6533 27.7325 51.56C27.7969 51.4667 27.8613 51.26 27.9257 50.94L29.4516 43.62C29.516 43.2867 29.5224 43.0667 29.4709 42.96C29.4194 42.8533 29.2069 42.8 28.8335 42.8H26.535C26.1744 42.8 25.949 42.7533 25.8589 42.66C25.7688 42.5533 25.7237 42.3133 25.7237 41.94V39.72C25.7237 39.4133 25.7688 39.22 25.8589 39.14C25.949 39.0467 26.1422 39 26.4384 39H39.9591H66.6892H81.094C81.4159 39 81.622 39.0467 81.7121 39.14C81.8151 39.2333 81.8666 39.46 81.8666 39.82V41.98C81.8666 42.3133 81.828 42.5333 81.7507 42.64C81.6863 42.7467 81.4932 42.8 81.1713 42.8H78.0229C77.5722 42.8 77.3017 42.8533 77.2116 42.96C77.1343 43.0533 77.0506 43.2933 76.9605 43.68L72.7691 64.06C72.666 64.5267 72.666 64.8333 72.7691 64.98C72.8721 65.1267 73.2133 65.2 73.7928 65.2H78.0422C79.729 65.2 81.1133 64.98 82.195 64.54C83.2766 64.1 84.1587 63.3467 84.8412 62.28C85.5365 61.2133 86.1353 59.7333 86.6375 57.84C86.7277 57.5067 86.8307 57.2867 86.9466 57.18C87.0624 57.06 87.3329 57 87.7578 57H89.303C89.625 57 89.831 57.0467 89.9211 57.14C90.0113 57.2333 90.0241 57.42 89.9598 57.7L87.6805 68.28C87.6033 68.5867 87.5003 68.7867 87.3715 68.88C87.2556 68.96 87.0045 69 86.6182 69H61.9718C61.5726 69 61.315 68.96 61.1991 68.88C61.0704 68.7867 61.006 68.5333 61.006 68.12ZM38.991 65.06C38.9008 65.1533 38.6433 65.2 38.2183 65.2H36.6248H35.5H33.8446H32.6579C32.13 65.2 31.8274 65.14 31.7501 65.02C31.6728 64.9 31.6793 64.6267 31.7694 64.2L36.0188 43.68C36.0961 43.2933 36.1926 43.0533 36.3085 42.96C36.4244 42.8533 36.7077 42.8 37.1584 42.8H39.9591H43.0086C43.4721 42.8 43.7361 42.86 43.8005 42.98C43.8649 43.0867 43.8584 43.32 43.7812 43.68L41.5 54L39.2421 64.38C39.1648 64.74 39.0811 64.9667 38.991 65.06Z" fill="#00C1EB"/>
<path d="M67.027 42.8H69.5434C70.007 42.8 70.2838 42.84 70.3739 42.92C70.477 43 70.4898 43.2467 70.4126 43.66L66.1439 64.24C66.0537 64.6933 65.9572 64.9667 65.8541 65.06C65.7511 65.1533 65.4356 65.2 64.9077 65.2H61.7207C61.4374 65.2 61.2506 65.2467 61.1605 65.34C61.0575 65.42 61.006 65.6067 61.006 65.9V68.12C61.006 68.5333 61.0704 68.7867 61.1991 68.88C61.315 68.96 61.5726 69 61.9718 69H86.6182C87.0045 69 87.2556 68.96 87.3715 68.88C87.5003 68.7867 87.6033 68.5867 87.6805 68.28L89.9598 57.7C90.0241 57.42 90.0113 57.2333 89.9211 57.14C89.831 57.0467 89.625 57 89.303 57H87.7578C87.3329 57 87.0624 57.06 86.9466 57.18C86.8307 57.2867 86.7277 57.5067 86.6375 57.84C86.1353 59.7333 85.5365 61.2133 84.8412 62.28C84.1587 63.3467 83.2766 64.1 82.195 64.54C81.1133 64.98 79.729 65.2 78.0422 65.2H73.7928C73.2133 65.2 72.8721 65.1267 72.7691 64.98C72.666 64.8333 72.666 64.5267 72.7691 64.06L76.9605 43.68C77.0506 43.2933 77.1343 43.0533 77.2116 42.96C77.3017 42.8533 77.5722 42.8 78.0229 42.8H81.1713C81.4932 42.8 81.6863 42.7467 81.7507 42.64C81.828 42.5333 81.8666 42.3133 81.8666 41.98V39.82C81.8666 39.46 81.8151 39.2333 81.7121 39.14C81.622 39.0467 81.4159 39 81.094 39H66.6892H39.9591H26.4384C26.1422 39 25.949 39.0467 25.8589 39.14C25.7688 39.22 25.7237 39.4133 25.7237 39.72V41.94C25.7237 42.3133 25.7688 42.5533 25.8589 42.66C25.949 42.7533 26.1744 42.8 26.535 42.8H28.8335C29.2069 42.8 29.4194 42.8533 29.4709 42.96C29.5224 43.0667 29.516 43.2867 29.4516 43.62L27.9257 50.94C27.8613 51.26 27.7969 51.4667 27.7325 51.56C27.6681 51.6533 27.4428 51.7 27.0565 51.7H16.1626C15.7119 51.7 15.4544 51.64 15.39 51.52C15.3385 51.3867 15.3449 51.14 15.4093 50.78L16.8773 43.7C16.9545 43.3267 17.0511 43.0867 17.167 42.98C17.2829 42.86 17.5662 42.8 18.0169 42.8H20.4892C20.8627 42.8 21.1009 42.76 21.2039 42.68C21.3198 42.5867 21.3777 42.3467 21.3777 41.96V39.82C21.3777 39.4867 21.3391 39.2667 21.2618 39.16C21.1975 39.0533 21.0043 39 20.6824 39H7.06503C6.64009 39 6.37612 39.06 6.2731 39.18C6.17009 39.2867 6.11858 39.56 6.11858 40V42C6.11858 42.3733 6.17653 42.6 6.29242 42.68C6.40831 42.76 6.64653 42.8 7.00709 42.8H9.63398C10.0203 42.8 10.2521 42.8467 10.3293 42.94C10.4066 43.0333 10.413 43.2467 10.3487 43.58L6.09926 64.1C5.99625 64.5933 5.86104 64.9 5.69364 65.02C5.53912 65.14 5.17212 65.2 4.59266 65.2H1.98509C1.5859 65.2 1.32192 65.2467 1.19315 65.34C1.06438 65.4333 1 65.6933 1 66.12V68.1C1 68.5133 1.05795 68.7667 1.17384 68.86C1.27685 68.9533 1.52795 69 1.92714 69H15.5445C15.9179 69 16.1626 68.9533 16.2785 68.86C16.3944 68.7667 16.4523 68.52 16.4523 68.12V66.1C16.4523 65.7133 16.4072 65.4667 16.3171 65.36C16.227 65.2533 15.9952 65.2 15.6218 65.2H13.3039C12.879 65.2 12.6407 65.1333 12.5892 65C12.5506 64.8667 12.5635 64.6333 12.6279 64.3L14.3276 56.16C14.392 55.8 14.4564 55.5667 14.5208 55.46C14.5852 55.34 14.8298 55.28 15.2548 55.28H25.9748C26.4641 55.28 26.7539 55.3333 26.844 55.44C26.9341 55.5467 26.9406 55.8 26.8633 56.2L25.1829 64.28C25.1056 64.68 25.0219 64.9333 24.9318 65.04C24.8545 65.1467 24.5777 65.2 24.1012 65.2H21.5323C21.2232 65.2 21.0043 65.24 20.8755 65.32C20.7596 65.4 20.7017 65.6133 20.7017 65.96V68.16C20.7017 68.52 20.7468 68.7533 20.8369 68.86C20.9399 68.9533 21.1588 69 21.4936 69H35.0313H49.7496C50.0587 69 50.2712 68.9667 50.387 68.9C50.5029 68.82 50.5609 68.6133 50.5609 68.28V65.98C50.5609 65.6733 50.5351 65.4667 50.4836 65.36C50.4321 65.2533 50.2583 65.2 49.9621 65.2H46.4274C46.0797 65.2 45.8737 65.16 45.8093 65.08C45.7449 65 45.7385 64.8133 45.79 64.52L47.6443 56.08C47.67 55.96 47.728 55.88 47.8181 55.84C47.9082 55.8 48.0241 55.78 48.1658 55.78H49.5372C50.8377 55.78 51.7327 56.1133 52.222 56.78C52.7242 57.4467 52.9045 58.46 52.7628 59.82C52.7371 60.14 52.7371 60.3667 52.7628 60.5C52.8015 60.62 53.0204 60.68 53.4196 60.68H54.7137C55.0099 60.68 55.2095 60.6533 55.3125 60.6C55.4284 60.5333 55.5121 60.38 55.5636 60.14L58.0939 49.12C58.1583 48.8533 58.1583 48.68 58.0939 48.6C58.0295 48.52 57.8299 48.48 57.4951 48.48H55.8919C55.6086 48.48 55.4412 48.54 55.3897 48.66C55.3511 48.7667 55.2932 48.92 55.2159 49.12C54.8038 50.24 54.1664 51.1267 53.3037 51.78C52.4538 52.4333 51.3528 52.76 50.0007 52.76H48.8611C48.6551 52.76 48.5328 52.7067 48.4941 52.6C48.4555 52.48 48.4555 52.34 48.4941 52.18L50.3484 43.72C50.4386 43.2933 50.5673 43.0333 50.7347 42.94C50.9021 42.8467 51.224 42.8 51.7005 42.8H57.244C58.7249 42.8 59.8838 43.0067 60.7208 43.42C61.5578 43.8333 62.0986 44.5133 62.3433 45.46C62.6008 46.4067 62.5944 47.6733 62.324 49.26C62.2725 49.58 62.2596 49.82 62.2853 49.98C62.324 50.1267 62.5557 50.2 62.9807 50.2H64.6225C65.0732 50.2 65.3372 50.1267 65.4144 49.98C65.4917 49.82 65.5689 49.5667 65.6462 49.22M67.027 42.8C66.2576 46.3772 66.4156 45.6428 65.6462 49.22M67.027 42.8L65.6462 49.22M35.5 65.2H33.8446H32.6579C32.13 65.2 31.8274 65.14 31.7501 65.02C31.6728 64.9 31.6793 64.6267 31.7694 64.2L36.0188 43.68C36.0961 43.2933 36.1926 43.0533 36.3085 42.96C36.4244 42.8533 36.7077 42.8 37.1584 42.8H39.9591H43.0086C43.4721 42.8 43.7361 42.86 43.8005 42.98C43.8649 43.0867 43.8584 43.32 43.7812 43.68L41.5 54L39.2421 64.38C39.1648 64.74 39.0811 64.9667 38.991 65.06C38.9008 65.1533 38.6433 65.2 38.2183 65.2H36.6248H35.5Z" stroke="#2B4C7E" stroke-width="1.6" stroke-linejoin="round"/>
</svg>
