<svg width="100" height="100" viewBox="0 0 100 100" fill="none" xmlns="http://www.w3.org/2000/svg">
<circle cx="50.5" cy="50.5" r="34.5" fill="#1F1F20"/>
<circle cx="50.5" cy="50.5" r="17" fill="#0059E0"/>
<circle cx="50.5" cy="50.5" r="17" stroke="#0059E0" stroke-width="29"/>
<circle cx="50.5" cy="50.5" r="17" stroke="#0059E0" stroke-width="29"/>
<path fill-rule="evenodd" clip-rule="evenodd" d="M66.006 84.12V81.9C66.006 81.6067 66.0575 81.42 66.1605 81.34C66.2506 81.2467 66.4374 81.2 66.7207 81.2H69.9077C70.4356 81.2 70.7511 81.1533 70.8541 81.06C70.9572 80.9667 71.0537 80.6933 71.1439 80.24L75.4126 59.66C75.4898 59.2467 75.477 59 75.3739 58.92C75.2838 58.84 75.007 58.8 74.5434 58.8H72.027L70.6462 65.22C70.5689 65.5667 70.4917 65.82 70.4144 65.98C70.3372 66.1267 70.0732 66.2 69.6225 66.2H67.9807C67.5557 66.2 67.324 66.1267 67.2853 65.98C67.2596 65.82 67.2725 65.58 67.324 65.26C67.5944 63.6733 67.6008 62.4067 67.3433 61.46C67.0986 60.5133 66.5578 59.8333 65.7208 59.42C64.8838 59.0067 63.7249 58.8 62.244 58.8H56.7005C56.224 58.8 55.9021 58.8467 55.7347 58.94C55.5673 59.0333 55.4386 59.2933 55.3484 59.72L53.4941 68.18C53.4555 68.34 53.4555 68.48 53.4941 68.6C53.5328 68.7067 53.6551 68.76 53.8611 68.76H55.0007C56.3528 68.76 57.4538 68.4333 58.3037 67.78C59.1664 67.1267 59.8038 66.24 60.2159 65.12C60.2932 64.92 60.3511 64.7667 60.3897 64.66C60.4412 64.54 60.6086 64.48 60.8919 64.48H62.4951C62.8299 64.48 63.0295 64.52 63.0939 64.6C63.1583 64.68 63.1583 64.8533 63.0939 65.12L60.5636 76.14C60.5121 76.38 60.4284 76.5333 60.3125 76.6C60.2095 76.6533 60.0099 76.68 59.7137 76.68H58.4196C58.0204 76.68 57.8015 76.62 57.7628 76.5C57.7371 76.3667 57.7371 76.14 57.7628 75.82C57.9045 74.46 57.7242 73.4467 57.222 72.78C56.7327 72.1133 55.8377 71.78 54.5372 71.78H53.1658C53.0241 71.78 52.9082 71.8 52.8181 71.84C52.728 71.88 52.67 71.96 52.6443 72.08L50.79 80.52C50.7385 80.8133 50.7449 81 50.8093 81.08C50.8737 81.16 51.0797 81.2 51.4274 81.2H54.9621C55.2583 81.2 55.4321 81.2533 55.4836 81.36C55.5351 81.4667 55.5609 81.6733 55.5609 81.98V84.28C55.5609 84.6133 55.5029 84.82 55.387 84.9C55.2712 84.9667 55.0587 85 54.7496 85H40.0313H26.4936C26.1588 85 25.9399 84.9533 25.8369 84.86C25.7468 84.7533 25.7017 84.52 25.7017 84.16V81.96C25.7017 81.6133 25.7596 81.4 25.8755 81.32C26.0043 81.24 26.2232 81.2 26.5323 81.2H29.1012C29.5777 81.2 29.8545 81.1467 29.9318 81.04C30.0219 80.9333 30.1056 80.68 30.1829 80.28L31.8633 72.2C31.9406 71.8 31.9341 71.5467 31.844 71.44C31.7539 71.3333 31.4641 71.28 30.9748 71.28H20.2548C19.8298 71.28 19.5852 71.34 19.5208 71.46C19.4564 71.5667 19.392 71.8 19.3276 72.16L17.6279 80.3C17.5635 80.6333 17.5506 80.8667 17.5892 81C17.6407 81.1333 17.879 81.2 18.3039 81.2H20.6218C20.9952 81.2 21.227 81.2533 21.3171 81.36C21.4072 81.4667 21.4523 81.7133 21.4523 82.1V84.12C21.4523 84.52 21.3944 84.7667 21.2785 84.86C21.1626 84.9533 20.9179 85 20.5445 85H6.92714C6.52795 85 6.27685 84.9533 6.17384 84.86C6.05795 84.7667 6 84.5133 6 84.1V82.12C6 81.6933 6.06438 81.4333 6.19315 81.34C6.32192 81.2467 6.5859 81.2 6.98509 81.2H9.59266C10.1721 81.2 10.5391 81.14 10.6936 81.02C10.861 80.9 10.9962 80.5933 11.0993 80.1L15.3487 59.58C15.413 59.2467 15.4066 59.0333 15.3293 58.94C15.2521 58.8467 15.0203 58.8 14.634 58.8H12.0071C11.6465 58.8 11.4083 58.76 11.2924 58.68C11.1765 58.6 11.1186 58.3733 11.1186 58V56C11.1186 55.56 11.1701 55.2867 11.2731 55.18C11.3761 55.06 11.6401 55 12.065 55H25.6824C26.0043 55 26.1975 55.0533 26.2618 55.16C26.3391 55.2667 26.3777 55.4867 26.3777 55.82V57.96C26.3777 58.3467 26.3198 58.5867 26.2039 58.68C26.1009 58.76 25.8627 58.8 25.4892 58.8H23.0169C22.5662 58.8 22.2829 58.86 22.167 58.98C22.0511 59.0867 21.9545 59.3267 21.8773 59.7L20.4093 66.78C20.3449 67.14 20.3385 67.3867 20.39 67.52C20.4544 67.64 20.7119 67.7 21.1626 67.7H32.0565C32.4428 67.7 32.6681 67.6533 32.7325 67.56C32.7969 67.4667 32.8613 67.26 32.9257 66.94L34.4516 59.62C34.516 59.2867 34.5224 59.0667 34.4709 58.96C34.4194 58.8533 34.2069 58.8 33.8335 58.8H31.535C31.1744 58.8 30.949 58.7533 30.8589 58.66C30.7688 58.5533 30.7237 58.3133 30.7237 57.94V55.72C30.7237 55.4133 30.7688 55.22 30.8589 55.14C30.949 55.0467 31.1422 55 31.4384 55H44.9591H71.6892H86.094C86.4159 55 86.622 55.0467 86.7121 55.14C86.8151 55.2333 86.8666 55.46 86.8666 55.82V57.98C86.8666 58.3133 86.828 58.5333 86.7507 58.64C86.6863 58.7467 86.4932 58.8 86.1713 58.8H83.0229C82.5722 58.8 82.3017 58.8533 82.2116 58.96C82.1343 59.0533 82.0506 59.2933 81.9605 59.68L77.7691 80.06C77.666 80.5267 77.666 80.8333 77.7691 80.98C77.8721 81.1267 78.2133 81.2 78.7928 81.2H83.0422C84.729 81.2 86.1133 80.98 87.195 80.54C88.2766 80.1 89.1587 79.3467 89.8412 78.28C90.5365 77.2133 91.1353 75.7333 91.6375 73.84C91.7277 73.5067 91.8307 73.2867 91.9466 73.18C92.0624 73.06 92.3329 73 92.7578 73H94.303C94.625 73 94.831 73.0467 94.9211 73.14C95.0113 73.2333 95.0241 73.42 94.9598 73.7L92.6805 84.28C92.6033 84.5867 92.5003 84.7867 92.3715 84.88C92.2556 84.96 92.0045 85 91.6182 85H66.9718C66.5726 85 66.315 84.96 66.1991 84.88C66.0704 84.7867 66.006 84.5333 66.006 84.12ZM43.991 81.06C43.9008 81.1533 43.6433 81.2 43.2183 81.2H41.6248H40.5H38.8446H37.6579C37.13 81.2 36.8274 81.14 36.7501 81.02C36.6728 80.9 36.6793 80.6267 36.7694 80.2L41.0188 59.68C41.0961 59.2933 41.1926 59.0533 41.3085 58.96C41.4244 58.8533 41.7077 58.8 42.1584 58.8H44.9591H48.0086C48.4721 58.8 48.7361 58.86 48.8005 58.98C48.8649 59.0867 48.8584 59.32 48.7812 59.68L46.5 70L44.2421 80.38C44.1648 80.74 44.0811 80.9667 43.991 81.06Z" fill="#00C1EB"/>
<path d="M72.027 58.8H74.5434C75.007 58.8 75.2838 58.84 75.3739 58.92C75.477 59 75.4898 59.2467 75.4126 59.66L71.1439 80.24C71.0537 80.6933 70.9572 80.9667 70.8541 81.06C70.7511 81.1533 70.4356 81.2 69.9077 81.2H66.7207C66.4374 81.2 66.2506 81.2467 66.1605 81.34C66.0575 81.42 66.006 81.6067 66.006 81.9V84.12C66.006 84.5333 66.0704 84.7867 66.1991 84.88C66.315 84.96 66.5726 85 66.9718 85H91.6182C92.0045 85 92.2556 84.96 92.3715 84.88C92.5003 84.7867 92.6033 84.5867 92.6805 84.28L94.9598 73.7C95.0241 73.42 95.0113 73.2333 94.9211 73.14C94.831 73.0467 94.625 73 94.303 73H92.7578C92.3329 73 92.0624 73.06 91.9466 73.18C91.8307 73.2867 91.7277 73.5067 91.6375 73.84C91.1353 75.7333 90.5365 77.2133 89.8412 78.28C89.1587 79.3467 88.2766 80.1 87.195 80.54C86.1133 80.98 84.729 81.2 83.0422 81.2H78.7928C78.2133 81.2 77.8721 81.1267 77.7691 80.98C77.666 80.8333 77.666 80.5267 77.7691 80.06L81.9605 59.68C82.0506 59.2933 82.1343 59.0533 82.2116 58.96C82.3017 58.8533 82.5722 58.8 83.0229 58.8H86.1713C86.4932 58.8 86.6863 58.7467 86.7507 58.64C86.828 58.5333 86.8666 58.3133 86.8666 57.98V55.82C86.8666 55.46 86.8151 55.2333 86.7121 55.14C86.622 55.0467 86.4159 55 86.094 55H71.6892H44.9591H31.4384C31.1422 55 30.949 55.0467 30.8589 55.14C30.7688 55.22 30.7237 55.4133 30.7237 55.72V57.94C30.7237 58.3133 30.7688 58.5533 30.8589 58.66C30.949 58.7533 31.1744 58.8 31.535 58.8H33.8335C34.2069 58.8 34.4194 58.8533 34.4709 58.96C34.5224 59.0667 34.516 59.2867 34.4516 59.62L32.9257 66.94C32.8613 67.26 32.7969 67.4667 32.7325 67.56C32.6681 67.6533 32.4428 67.7 32.0565 67.7H21.1626C20.7119 67.7 20.4544 67.64 20.39 67.52C20.3385 67.3867 20.3449 67.14 20.4093 66.78L21.8773 59.7C21.9545 59.3267 22.0511 59.0867 22.167 58.98C22.2829 58.86 22.5662 58.8 23.0169 58.8H25.4892C25.8627 58.8 26.1009 58.76 26.2039 58.68C26.3198 58.5867 26.3777 58.3467 26.3777 57.96V55.82C26.3777 55.4867 26.3391 55.2667 26.2618 55.16C26.1975 55.0533 26.0043 55 25.6824 55H12.065C11.6401 55 11.3761 55.06 11.2731 55.18C11.1701 55.2867 11.1186 55.56 11.1186 56V58C11.1186 58.3733 11.1765 58.6 11.2924 58.68C11.4083 58.76 11.6465 58.8 12.0071 58.8H14.634C15.0203 58.8 15.2521 58.8467 15.3293 58.94C15.4066 59.0333 15.413 59.2467 15.3487 59.58L11.0993 80.1C10.9962 80.5933 10.861 80.9 10.6936 81.02C10.5391 81.14 10.1721 81.2 9.59266 81.2H6.98509C6.5859 81.2 6.32192 81.2467 6.19315 81.34C6.06438 81.4333 6 81.6933 6 82.12V84.1C6 84.5133 6.05795 84.7667 6.17384 84.86C6.27685 84.9533 6.52795 85 6.92714 85H20.5445C20.9179 85 21.1626 84.9533 21.2785 84.86C21.3944 84.7667 21.4523 84.52 21.4523 84.12V82.1C21.4523 81.7133 21.4072 81.4667 21.3171 81.36C21.227 81.2533 20.9952 81.2 20.6218 81.2H18.3039C17.879 81.2 17.6407 81.1333 17.5892 81C17.5506 80.8667 17.5635 80.6333 17.6279 80.3L19.3276 72.16C19.392 71.8 19.4564 71.5667 19.5208 71.46C19.5852 71.34 19.8298 71.28 20.2548 71.28H30.9748C31.4641 71.28 31.7539 71.3333 31.844 71.44C31.9341 71.5467 31.9406 71.8 31.8633 72.2L30.1829 80.28C30.1056 80.68 30.0219 80.9333 29.9318 81.04C29.8545 81.1467 29.5777 81.2 29.1012 81.2H26.5323C26.2232 81.2 26.0043 81.24 25.8755 81.32C25.7596 81.4 25.7017 81.6133 25.7017 81.96V84.16C25.7017 84.52 25.7468 84.7533 25.8369 84.86C25.9399 84.9533 26.1588 85 26.4936 85H40.0313H54.7496C55.0587 85 55.2712 84.9667 55.387 84.9C55.5029 84.82 55.5609 84.6133 55.5609 84.28V81.98C55.5609 81.6733 55.5351 81.4667 55.4836 81.36C55.4321 81.2533 55.2583 81.2 54.9621 81.2H51.4274C51.0797 81.2 50.8737 81.16 50.8093 81.08C50.7449 81 50.7385 80.8133 50.79 80.52L52.6443 72.08C52.67 71.96 52.728 71.88 52.8181 71.84C52.9082 71.8 53.0241 71.78 53.1658 71.78H54.5372C55.8377 71.78 56.7327 72.1133 57.222 72.78C57.7242 73.4467 57.9045 74.46 57.7628 75.82C57.7371 76.14 57.7371 76.3667 57.7628 76.5C57.8015 76.62 58.0204 76.68 58.4196 76.68H59.7137C60.0099 76.68 60.2095 76.6533 60.3125 76.6C60.4284 76.5333 60.5121 76.38 60.5636 76.14L63.0939 65.12C63.1583 64.8533 63.1583 64.68 63.0939 64.6C63.0295 64.52 62.8299 64.48 62.4951 64.48H60.8919C60.6086 64.48 60.4412 64.54 60.3897 64.66C60.3511 64.7667 60.2932 64.92 60.2159 65.12C59.8038 66.24 59.1664 67.1267 58.3037 67.78C57.4538 68.4333 56.3528 68.76 55.0007 68.76H53.8611C53.6551 68.76 53.5328 68.7067 53.4941 68.6C53.4555 68.48 53.4555 68.34 53.4941 68.18L55.3484 59.72C55.4386 59.2933 55.5673 59.0333 55.7347 58.94C55.9021 58.8467 56.224 58.8 56.7005 58.8H62.244C63.7249 58.8 64.8838 59.0067 65.7208 59.42C66.5578 59.8333 67.0986 60.5133 67.3433 61.46C67.6008 62.4067 67.5944 63.6733 67.324 65.26C67.2725 65.58 67.2596 65.82 67.2853 65.98C67.324 66.1267 67.5557 66.2 67.9807 66.2H69.6225C70.0732 66.2 70.3372 66.1267 70.4144 65.98C70.4917 65.82 70.5689 65.5667 70.6462 65.22M72.027 58.8C71.2576 62.3772 71.4156 61.6428 70.6462 65.22M72.027 58.8L70.6462 65.22M40.5 81.2H38.8446H37.6579C37.13 81.2 36.8274 81.14 36.7501 81.02C36.6728 80.9 36.6793 80.6267 36.7694 80.2L41.0188 59.68C41.0961 59.2933 41.1926 59.0533 41.3085 58.96C41.4244 58.8533 41.7077 58.8 42.1584 58.8H44.9591H48.0086C48.4721 58.8 48.7361 58.86 48.8005 58.98C48.8649 59.0867 48.8584 59.32 48.7812 59.68L46.5 70L44.2421 80.38C44.1648 80.74 44.0811 80.9667 43.991 81.06C43.9008 81.1533 43.6433 81.2 43.2183 81.2H41.6248H40.5Z" stroke="#2B4C7E" stroke-width="1.6" stroke-linejoin="round"/>
<path d="M41.82 39.76L33.72 42.78L41.82 45.78V48.72L28.54 43.1V42.48L41.82 36.84V39.76ZM43.6306 51.1L54.0306 34.2H56.8106L46.4106 51.1H43.6306ZM72.4113 42.44V43.08L59.1313 48.74V45.8L67.2313 42.78L59.1313 39.78V36.86L72.4113 42.44Z" fill="white"/>
</svg>
